<svg width="19" height="18" viewBox="0 0 19 18" fill="none" xmlns="http://www.w3.org/2000/svg">
<path d="M3.30365 17.4536H8.93752V11.4902H6.91337V9.52431H8.93752V7.06689C8.93752 5.71186 10.0725 4.60948 11.4677 4.60948H13.9979V6.57541H11.9737C11.4156 6.57541 10.9617 7.01634 10.9617 7.55838V9.52431H13.9066L13.5692 11.4902H10.9617V17.4536H15.516C16.9111 17.4536 18.0462 16.3512 18.0462 14.9962V3.13503C18.0462 1.77999 16.9111 0.677612 15.516 0.677612H3.30365C1.90849 0.677612 0.773468 1.77999 0.773468 3.13503V14.9962C0.773468 16.3512 1.90849 17.4536 3.30365 17.4536ZM1.78554 3.13503C1.78554 2.32203 2.46658 1.66058 3.30365 1.66058H15.516C16.3531 1.66058 17.0341 2.32203 17.0341 3.13503V14.9962C17.0341 15.8092 16.3531 16.4706 15.516 16.4706H11.9737V12.4732H14.4266L15.1013 8.54134H11.9737V7.55838H15.01V3.62651H11.4677C9.51445 3.62651 7.92545 5.16982 7.92545 7.06689V8.54134H5.9013V12.4732H7.92545V16.4706H3.30365C2.46658 16.4706 1.78554 15.8092 1.78554 14.9962V3.13503Z" fill="#213875"/>
</svg>
