<svg width="19" height="17" viewBox="0 0 19 17" fill="none" xmlns="http://www.w3.org/2000/svg">
<path d="M9.40982 0C4.66323 0 0.773468 3.81066 0.773468 8.42074C0.773468 13.0041 4.62778 16.776 9.40982 16.776C14.1859 16.776 18.0462 13.0097 18.0462 8.42074C18.0462 3.81066 14.1564 0 9.40982 0ZM10.9279 15.6455C10.4422 15.7438 9.926 15.793 9.40982 15.793C8.89364 15.793 8.37745 15.7438 7.89171 15.6455V13.3454C7.89171 12.7949 8.04352 12.5984 8.24594 12.3329C8.34899 12.2185 8.41119 12.1158 8.87334 11.4385L8.09413 11.3205C6.09014 11.0355 5.30078 10.0229 4.98701 9.23656C4.58218 8.18486 4.79474 6.86758 5.52349 6.03219C5.63484 5.90433 5.7259 5.68802 5.64499 5.46199C5.49305 5.0098 5.51334 4.29229 5.61455 4.01698C6.15116 4.09147 6.70292 4.46482 7.1631 4.73462C7.37513 4.8548 7.48636 4.82306 7.58809 4.83292C7.95787 4.75817 8.53467 4.57732 9.41997 4.57732C9.96646 4.57732 10.5434 4.65591 11.1102 4.81321C11.2115 4.8109 11.3744 4.89461 11.6567 4.73462C12.1377 4.44997 12.6707 4.08942 13.2051 4.01698C13.3063 4.29229 13.3266 5.0098 13.1748 5.46199C13.0937 5.68802 13.1848 5.90433 13.2963 6.03219C14.0249 6.86771 14.2375 8.18486 13.8326 9.23656C13.5189 10.0229 12.7295 11.0355 10.7255 11.3205L9.9463 11.4385C10.424 12.1386 10.4743 12.2226 10.5738 12.3329C10.7761 12.5984 10.9279 12.7949 10.9279 13.3454V15.6455ZM11.94 15.3605V13.3454C11.94 12.7851 11.8185 12.4116 11.6565 12.1363C13.1949 11.7334 14.2881 10.8486 14.7738 9.58059C15.29 8.24386 15.0573 6.65141 14.1969 5.55043C14.3488 4.89192 14.3488 3.8401 13.9844 3.34861C13.8225 3.13244 13.5998 3.01443 13.3164 3.01443C13.3063 3.01443 13.3063 3.01443 13.3063 3.01443C12.5215 3.05564 11.9039 3.43949 11.2417 3.83024C10.6345 3.67294 10.0171 3.59435 9.39967 3.59435C8.77227 3.59435 8.14473 3.6828 7.58822 3.83024C6.8911 3.42195 6.27938 3.05462 5.47288 3.01443C5.21987 3.01443 4.99716 3.13244 4.8352 3.34861C4.47096 3.8401 4.47096 4.89192 4.62277 5.55043C3.76238 6.65141 3.52965 8.25359 4.04584 9.58059C4.53158 10.8486 5.6247 11.7334 7.1631 12.1363C7.03751 12.3497 6.93815 12.625 6.89901 12.9976C6.58827 13.1016 6.31878 13.1355 6.06814 13.064C5.80378 12.9881 5.59781 12.8167 5.41885 12.5244C5.01692 11.8686 4.33233 11.3332 3.55285 11.4028L3.6418 12.3819C4.00274 12.3498 4.36198 12.7207 4.54858 13.0265C4.85642 13.53 5.27113 13.8602 5.78151 14.0066C6.16038 14.115 6.5067 14.1125 6.87964 14.0352V15.3605C3.93448 14.3578 1.78554 11.6252 1.78554 8.42074C1.78554 4.35129 5.21987 0.982966 9.40982 0.982966C13.5998 0.982966 17.0341 4.35129 17.0341 8.42074C17.0341 11.6252 14.8852 14.3578 11.94 15.3605Z" fill="#213875"/>
</svg>
