<svg width="19" height="17" viewBox="0 0 19 17" fill="none" xmlns="http://www.w3.org/2000/svg">
<path d="M3.30365 16.8944H15.516C16.9111 16.8944 18.0462 15.792 18.0462 14.4369V2.57582C18.0462 1.22079 16.9111 0.118408 15.516 0.118408H3.30365C1.90849 0.118408 0.773468 1.22079 0.773468 2.57582V14.4369C0.773468 15.792 1.90849 16.8944 3.30365 16.8944ZM1.78554 2.57582C1.78554 1.76283 2.46658 1.10137 3.30365 1.10137H15.516C16.3531 1.10137 17.0341 1.76283 17.0341 2.57582V14.4369C17.0341 15.2499 16.3531 15.9114 15.516 15.9114H3.30365C2.46658 15.9114 1.78554 15.2499 1.78554 14.4369V2.57582Z" fill="#213875"/>
<path d="M9.40982 12.9297C11.921 12.9297 13.9641 10.9453 13.9641 8.50636C13.9641 6.06737 11.921 4.08301 9.40982 4.08301C6.89862 4.08301 4.8555 6.06737 4.8555 8.50636C4.8555 10.9453 6.89862 12.9297 9.40982 12.9297ZM9.40982 5.06597C11.3631 5.06597 12.9521 6.60928 12.9521 8.50636C12.9521 10.4034 11.3631 11.9467 9.40982 11.9467C7.45658 11.9467 5.86757 10.4034 5.86757 8.50636C5.86757 6.60928 7.45658 5.06597 9.40982 5.06597Z" fill="#213875"/>
<path d="M14.1826 4.82742C15.0097 4.82742 15.6826 4.17386 15.6826 3.37056C15.6826 2.56726 15.0097 1.9137 14.1826 1.9137C13.3556 1.9137 12.6826 2.56726 12.6826 3.37056C12.6826 4.17386 13.3556 4.82742 14.1826 4.82742ZM14.1826 2.88494C14.4583 2.88494 14.6826 3.10284 14.6826 3.37056C14.6826 3.63828 14.4583 3.85618 14.1826 3.85618C13.907 3.85618 13.6826 3.63828 13.6826 3.37056C13.6826 3.10284 13.907 2.88494 14.1826 2.88494Z" fill="#213875"/>
</svg>
