<svg width="19" height="15" viewBox="0 0 19 15" fill="none" xmlns="http://www.w3.org/2000/svg">
<path d="M18.0462 2.62973C16.9596 2.67836 16.9834 2.67439 16.8605 2.68438L17.504 0.899553C17.504 0.899553 15.4954 1.61719 14.9862 1.74557C13.6489 0.578169 11.6612 0.526589 10.24 1.37491C9.07628 2.06977 8.45165 3.26302 8.65999 4.65773C6.39508 4.35248 4.48677 3.30974 2.98013 1.55192L2.50361 0.996057L2.14754 1.63115C1.69751 2.43364 1.54807 3.35121 1.72663 4.21476C1.7999 4.56904 1.92444 4.90693 2.09694 5.22332L1.68815 5.06948L1.63966 5.73285C1.59051 6.40672 1.82152 7.19335 2.25771 7.83688C2.38053 8.01812 2.53866 8.21714 2.7391 8.41348L2.52786 8.382L2.78562 9.14213C3.12443 10.1408 3.82814 10.9135 4.74137 11.3431C3.82932 11.719 3.09254 11.9588 1.88148 12.3457L0.773468 12.6995L1.79687 13.2429C2.18708 13.4502 3.56589 14.1422 4.92824 14.3498C7.95655 14.8111 11.3661 14.4354 13.6614 12.4276C15.5948 10.7365 16.2292 8.33093 16.0974 5.82756C16.0775 5.44859 16.1844 5.08688 16.3984 4.80927C16.8271 4.25341 18.0435 2.63344 18.0462 2.62973ZM15.5891 4.22052C15.2337 4.68141 15.0557 5.27004 15.0876 5.87774C15.2205 8.40286 14.5131 10.3611 12.9849 11.6978C11.1997 13.2595 8.32013 13.8724 5.08492 13.3795C4.49903 13.2903 3.8935 13.0905 3.39234 12.891C4.4077 12.5517 5.1918 12.2492 6.45807 11.6671L8.22577 10.8545L6.27411 10.7332C5.33926 10.6751 4.56083 10.235 4.08234 9.5206C4.33641 9.50626 4.58139 9.46633 4.82532 9.40029L6.68671 8.89677L4.80977 8.45034C3.89771 8.2334 3.37784 7.70339 3.10229 7.29689C2.92135 7.02978 2.80315 6.75613 2.73225 6.50387C2.92043 6.55289 3.13985 6.58783 3.49368 6.62187L5.23094 6.78877L3.85449 5.74591C2.86271 4.9946 2.46526 3.86586 2.75663 2.78075C5.85188 5.89886 9.48612 5.66451 9.85194 5.74693C9.77143 4.98731 9.76932 4.98552 9.74823 4.9132C9.27975 3.30475 10.3065 2.48804 10.7695 2.21158C11.7368 1.63422 13.2722 1.54718 14.3356 2.49841C14.5653 2.7037 14.8759 2.78447 15.1666 2.71433C15.4276 2.65136 15.6417 2.58467 15.8514 2.5121L15.4149 3.72264L15.9721 3.72302C15.8669 3.85997 15.7408 4.02392 15.5891 4.22052Z" fill="#213875"/>
</svg>
